<?xml version='1.0' encoding='UTF-8'?>
<svg width="82mm" height="82mm" version="1.1" viewBox="0 0 82 82" xmlns="http://www.w3.org/2000/svg"><path d="M4,4H6V6H4zM6,4H8V6H6zM8,4H10V6H8zM10,4H12V6H10zM12,4H14V6H12zM14,4H16V6H14zM16,4H18V6H16zM20,4H22V6H20zM22,4H24V6H22zM28,4H30V6H28zM32,4H34V6H32zM34,4H36V6H34zM38,4H40V6H38zM40,4H42V6H40zM42,4H44V6H42zM46,4H48V6H46zM48,4H50V6H48zM54,4H56V6H54zM64,4H66V6H64zM66,4H68V6H66zM68,4H70V6H68zM70,4H72V6H70zM72,4H74V6H72zM74,4H76V6H74zM76,4H78V6H76zM4,6H6V8H4zM16,6H18V8H16zM20,6H22V8H20zM22,6H24V8H22zM30,6H32V8H30zM44,6H46V8H44zM48,6H50V8H48zM54,6H56V8H54zM60,6H62V8H60zM64,6H66V8H64zM76,6H78V8H76zM4,8H6V10H4zM8,8H10V10H8zM10,8H12V10H10zM12,8H14V10H12zM16,8H18V10H16zM20,8H22V10H20zM22,8H24V10H22zM26,8H28V10H26zM32,8H34V10H32zM34,8H36V10H34zM44,8H46V10H44zM46,8H48V10H46zM48,8H50V10H48zM54,8H56V10H54zM60,8H62V10H60zM64,8H66V10H64zM68,8H70V10H68zM70,8H72V10H70zM72,8H74V10H72zM76,8H78V10H76zM4,10H6V12H4zM8,10H10V12H8zM10,10H12V12H10zM12,10H14V12H12zM16,10H18V12H16zM22,10H24V12H22zM24,10H26V12H24zM34,10H36V12H34zM38,10H40V12H38zM42,10H44V12H42zM46,10H48V12H46zM50,10H52V12H50zM54,10H56V12H54zM64,10H66V12H64zM68,10H70V12H68zM70,10H72V12H70zM72,10H74V12H72zM76,10H78V12H76zM4,12H6V14H4zM8,12H10V14H8zM10,12H12V14H10zM12,12H14V14H12zM16,12H18V14H16zM20,12H22V14H20zM22,12H24V14H22zM24,12H26V14H24zM28,12H30V14H28zM30,12H32V14H30zM32,12H34V14H32zM34,12H36V14H34zM38,12H40V14H38zM40,12H42V14H40zM42,12H44V14H42zM60,12H62V14H60zM64,12H66V14H64zM68,12H70V14H68zM70,12H72V14H70zM72,12H74V14H72zM76,12H78V14H76zM4,14H6V16H4zM16,14H18V16H16zM24,14H26V16H24zM26,14H28V16H26zM36,14H38V16H36zM38,14H40V16H38zM40,14H42V16H40zM46,14H48V16H46zM48,14H50V16H48zM50,14H52V16H50zM52,14H54V16H52zM56,14H58V16H56zM64,14H66V16H64zM76,14H78V16H76zM4,16H6V18H4zM6,16H8V18H6zM8,16H10V18H8zM10,16H12V18H10zM12,16H14V18H12zM14,16H16V18H14zM16,16H18V18H16zM20,16H22V18H20zM24,16H26V18H24zM28,16H30V18H28zM32,16H34V18H32zM36,16H38V18H36zM40,16H42V18H40zM44,16H46V18H44zM48,16H50V18H48zM52,16H54V18H52zM56,16H58V18H56zM60,16H62V18H60zM64,16H66V18H64zM66,16H68V18H66zM68,16H70V18H68zM70,16H72V18H70zM72,16H74V18H72zM74,16H76V18H74zM76,16H78V18H76zM22,18H24V20H22zM30,18H32V20H30zM36,18H38V20H36zM42,18H44V20H42zM44,18H46V20H44zM54,18H56V20H54zM56,18H58V20H56zM4,20H6V22H4zM10,20H12V22H10zM12,20H14V22H12zM14,20H16V22H14zM16,20H18V22H16zM18,20H20V22H18zM20,20H22V22H20zM22,20H24V22H22zM26,20H28V22H26zM34,20H36V22H34zM36,20H38V22H36zM40,20H42V22H40zM44,20H46V22H44zM50,20H52V22H50zM52,20H54V22H52zM60,20H62V22H60zM62,20H64V22H62zM68,20H70V22H68zM72,20H74V22H72zM74,20H76V22H74zM76,20H78V22H76zM4,22H6V24H4zM12,22H14V24H12zM14,22H16V24H14zM18,22H20V24H18zM20,22H22V24H20zM22,22H24V24H22zM44,22H46V24H44zM46,22H48V24H46zM48,22H50V24H48zM50,22H52V24H50zM52,22H54V24H52zM54,22H56V24H54zM56,22H58V24H56zM58,22H60V24H58zM68,22H70V24H68zM72,22H74V24H72zM74,22H76V24H74zM8,24H10V26H8zM10,24H12V26H10zM16,24H18V26H16zM18,24H20V26H18zM20,24H22V26H20zM24,24H26V26H24zM26,24H28V26H26zM30,24H32V26H30zM32,24H34V26H32zM40,24H42V26H40zM46,24H48V26H46zM50,24H52V26H50zM56,24H58V26H56zM58,24H60V26H58zM60,24H62V26H60zM62,24H64V26H62zM64,24H66V26H64zM68,24H70V26H68zM76,24H78V26H76zM6,26H8V28H6zM8,26H10V28H8zM12,26H14V28H12zM14,26H16V28H14zM18,26H20V28H18zM30,26H32V28H30zM32,26H34V28H32zM34,26H36V28H34zM38,26H40V28H38zM40,26H42V28H40zM50,26H52V28H50zM52,26H54V28H52zM56,26H58V28H56zM62,26H64V28H62zM64,26H66V28H64zM66,26H68V28H66zM70,26H72V28H70zM72,26H74V28H72zM74,26H76V28H74zM76,26H78V28H76zM8,28H10V30H8zM10,28H12V30H10zM12,28H14V30H12zM14,28H16V30H14zM16,28H18V30H16zM18,28H20V30H18zM24,28H26V30H24zM26,28H28V30H26zM32,28H34V30H32zM36,28H38V30H36zM40,28H42V30H40zM42,28H44V30H42zM44,28H46V30H44zM50,28H52V30H50zM52,28H54V30H52zM56,28H58V30H56zM58,28H60V30H58zM60,28H62V30H60zM64,28H66V30H64zM70,28H72V30H70zM76,28H78V30H76zM4,30H6V32H4zM6,30H8V32H6zM8,30H10V32H8zM10,30H12V32H10zM14,30H16V32H14zM18,30H20V32H18zM20,30H22V32H20zM24,30H26V32H24zM26,30H28V32H26zM34,30H36V32H34zM36,30H38V32H36zM38,30H40V32H38zM40,30H42V32H40zM46,30H48V32H46zM50,30H52V32H50zM56,30H58V32H56zM58,30H60V32H58zM60,30H62V32H60zM68,30H70V32H68zM70,30H72V32H70zM4,32H6V34H4zM6,32H8V34H6zM12,32H14V34H12zM16,32H18V34H16zM20,32H22V34H20zM22,32H24V34H22zM24,32H26V34H24zM28,32H30V34H28zM30,32H32V34H30zM32,32H34V34H32zM34,32H36V34H34zM38,32H40V34H38zM42,32H44V34H42zM46,32H48V34H46zM48,32H50V34H48zM56,32H58V34H56zM58,32H60V34H58zM60,32H62V34H60zM62,32H64V34H62zM68,32H70V34H68zM70,32H72V34H70zM72,32H74V34H72zM74,32H76V34H74zM76,32H78V34H76zM4,34H6V36H4zM6,34H8V36H6zM8,34H10V36H8zM12,34H14V36H12zM18,34H20V36H18zM20,34H22V36H20zM26,34H28V36H26zM30,34H32V36H30zM32,34H34V36H32zM36,34H38V36H36zM38,34H40V36H38zM40,34H42V36H40zM48,34H50V36H48zM58,34H60V36H58zM60,34H62V36H60zM62,34H64V36H62zM66,34H68V36H66zM70,34H72V36H70zM72,34H74V36H72zM76,34H78V36H76zM4,36H6V38H4zM6,36H8V38H6zM8,36H10V38H8zM10,36H12V38H10zM14,36H16V38H14zM16,36H18V38H16zM24,36H26V38H24zM26,36H28V38H26zM30,36H32V38H30zM32,36H34V38H32zM36,36H38V38H36zM38,36H40V38H38zM44,36H46V38H44zM48,36H50V38H48zM50,36H52V38H50zM52,36H54V38H52zM54,36H56V38H54zM58,36H60V38H58zM64,36H66V38H64zM72,36H74V38H72zM76,36H78V38H76zM4,38H6V40H4zM8,38H10V40H8zM14,38H16V40H14zM20,38H22V40H20zM24,38H26V40H24zM36,38H38V40H36zM40,38H42V40H40zM44,38H46V40H44zM46,38H48V40H46zM48,38H50V40H48zM54,38H56V40H54zM56,38H58V40H56zM58,38H60V40H58zM62,38H64V40H62zM66,38H68V40H66zM70,38H72V40H70zM4,40H6V42H4zM10,40H12V42H10zM12,40H14V42H12zM16,40H18V42H16zM24,40H26V42H24zM28,40H30V42H28zM34,40H36V42H34zM44,40H46V42H44zM50,40H52V42H50zM54,40H56V42H54zM58,40H60V42H58zM60,40H62V42H60zM66,40H68V42H66zM70,40H72V42H70zM72,40H74V42H72zM76,40H78V42H76zM4,42H6V44H4zM8,42H10V44H8zM10,42H12V44H10zM12,42H14V44H12zM14,42H16V44H14zM24,42H26V44H24zM28,42H30V44H28zM40,42H42V44H40zM52,42H54V44H52zM54,42H56V44H54zM58,42H60V44H58zM60,42H62V44H60zM62,42H64V44H62zM66,42H68V44H66zM68,42H70V44H68zM76,42H78V44H76zM14,44H16V46H14zM16,44H18V46H16zM22,44H24V46H22zM26,44H28V46H26zM30,44H32V46H30zM34,44H36V46H34zM36,44H38V46H36zM38,44H40V46H38zM44,44H46V46H44zM50,44H52V46H50zM56,44H58V46H56zM62,44H64V46H62zM64,44H66V46H64zM66,44H68V46H66zM68,44H70V46H68zM70,44H72V46H70zM8,46H10V48H8zM10,46H12V48H10zM18,46H20V48H18zM22,46H24V48H22zM24,46H26V48H24zM28,46H30V48H28zM32,46H34V48H32zM34,46H36V48H34zM40,46H42V48H40zM42,46H44V48H42zM48,46H50V48H48zM50,46H52V48H50zM56,46H58V48H56zM58,46H60V48H58zM62,46H64V48H62zM68,46H70V48H68zM72,46H74V48H72zM74,46H76V48H74zM4,48H6V50H4zM6,48H8V50H6zM8,48H10V50H8zM12,48H14V50H12zM14,48H16V50H14zM16,48H18V50H16zM26,48H28V50H26zM28,48H30V50H28zM34,48H36V50H34zM38,48H40V50H38zM40,48H42V50H40zM46,48H48V50H46zM50,48H52V50H50zM56,48H58V50H56zM58,48H60V50H58zM60,48H62V50H60zM62,48H64V50H62zM64,48H66V50H64zM66,48H68V50H66zM70,48H72V50H70zM76,48H78V50H76zM14,50H16V52H14zM18,50H20V52H18zM26,50H28V52H26zM28,50H30V52H28zM30,50H32V52H30zM32,50H34V52H32zM38,50H40V52H38zM52,50H54V52H52zM66,50H68V52H66zM68,50H70V52H68zM70,50H72V52H70zM72,50H74V52H72zM76,50H78V52H76zM4,52H6V54H4zM8,52H10V54H8zM12,52H14V54H12zM16,52H18V54H16zM22,52H24V54H22zM34,52H36V54H34zM36,52H38V54H36zM38,52H40V54H38zM40,52H42V54H40zM48,52H50V54H48zM50,52H52V54H50zM58,52H60V54H58zM60,52H62V54H60zM64,52H66V54H64zM74,52H76V54H74zM4,54H6V56H4zM8,54H10V56H8zM10,54H12V56H10zM14,54H16V56H14zM20,54H22V56H20zM26,54H28V56H26zM32,54H34V56H32zM36,54H38V56H36zM38,54H40V56H38zM42,54H44V56H42zM44,54H46V56H44zM50,54H52V56H50zM54,54H56V56H54zM58,54H60V56H58zM60,54H62V56H60zM68,54H70V56H68zM70,54H72V56H70zM72,54H74V56H72zM4,56H6V58H4zM6,56H8V58H6zM8,56H10V58H8zM12,56H14V58H12zM16,56H18V58H16zM18,56H20V58H18zM22,56H24V58H22zM26,56H28V58H26zM32,56H34V58H32zM36,56H38V58H36zM40,56H42V58H40zM42,56H44V58H42zM44,56H46V58H44zM58,56H60V58H58zM60,56H62V58H60zM64,56H66V58H64zM72,56H74V58H72zM74,56H76V58H74zM76,56H78V58H76zM4,58H6V60H4zM12,58H14V60H12zM14,58H16V60H14zM20,58H22V60H20zM24,58H26V60H24zM26,58H28V60H26zM32,58H34V60H32zM34,58H36V60H34zM44,58H46V60H44zM50,58H52V60H50zM58,58H60V60H58zM62,58H64V60H62zM68,58H70V60H68zM70,58H72V60H70zM72,58H74V60H72zM74,58H76V60H74zM4,60H6V62H4zM10,60H12V62H10zM16,60H18V62H16zM18,60H20V62H18zM20,60H22V62H20zM24,60H26V62H24zM26,60H28V62H26zM28,60H30V62H28zM44,60H46V62H44zM50,60H52V62H50zM54,60H56V62H54zM60,60H62V62H60zM62,60H64V62H62zM64,60H66V62H64zM66,60H68V62H66zM68,60H70V62H68zM70,60H72V62H70zM72,60H74V62H72zM76,60H78V62H76zM20,62H22V64H20zM24,62H26V64H24zM26,62H28V64H26zM34,62H36V64H34zM40,62H42V64H40zM42,62H44V64H42zM44,62H46V64H44zM46,62H48V64H46zM48,62H50V64H48zM60,62H62V64H60zM68,62H70V64H68zM72,62H74V64H72zM74,62H76V64H74zM4,64H6V66H4zM6,64H8V66H6zM8,64H10V66H8zM10,64H12V66H10zM12,64H14V66H12zM14,64H16V66H14zM16,64H18V66H16zM20,64H22V66H20zM26,64H28V66H26zM28,64H30V66H28zM30,64H32V66H30zM34,64H36V66H34zM42,64H44V66H42zM50,64H52V66H50zM52,64H54V66H52zM56,64H58V66H56zM60,64H62V66H60zM64,64H66V66H64zM68,64H70V66H68zM76,64H78V66H76zM4,66H6V68H4zM16,66H18V68H16zM20,66H22V68H20zM22,66H24V68H22zM24,66H26V68H24zM26,66H28V68H26zM28,66H30V68H28zM32,66H34V68H32zM34,66H36V68H34zM36,66H38V68H36zM38,66H40V68H38zM40,66H42V68H40zM48,66H50V68H48zM50,66H52V68H50zM54,66H56V68H54zM56,66H58V68H56zM58,66H60V68H58zM60,66H62V68H60zM68,66H70V68H68zM74,66H76V68H74zM4,68H6V70H4zM8,68H10V70H8zM10,68H12V70H10zM12,68H14V70H12zM16,68H18V70H16zM20,68H22V70H20zM24,68H26V70H24zM28,68H30V70H28zM32,68H34V70H32zM42,68H44V70H42zM46,68H48V70H46zM48,68H50V70H48zM50,68H52V70H50zM52,68H54V70H52zM56,68H58V70H56zM58,68H60V70H58zM60,68H62V70H60zM62,68H64V70H62zM64,68H66V70H64zM66,68H68V70H66zM68,68H70V70H68zM74,68H76V70H74zM76,68H78V70H76zM4,70H6V72H4zM8,70H10V72H8zM10,70H12V72H10zM12,70H14V72H12zM16,70H18V72H16zM20,70H22V72H20zM22,70H24V72H22zM30,70H32V72H30zM36,70H38V72H36zM38,70H40V72H38zM40,70H42V72H40zM46,70H48V72H46zM48,70H50V72H48zM50,70H52V72H50zM54,70H56V72H54zM56,70H58V72H56zM60,70H62V72H60zM62,70H64V72H62zM64,70H66V72H64zM72,70H74V72H72zM76,70H78V72H76zM4,72H6V74H4zM8,72H10V74H8zM10,72H12V74H10zM12,72H14V74H12zM16,72H18V74H16zM24,72H26V74H24zM26,72H28V74H26zM28,72H30V74H28zM32,72H34V74H32zM34,72H36V74H34zM36,72H38V74H36zM42,72H44V74H42zM44,72H46V74H44zM48,72H50V74H48zM50,72H52V74H50zM54,72H56V74H54zM68,72H70V74H68zM72,72H74V74H72zM76,72H78V74H76zM4,74H6V76H4zM16,74H18V76H16zM22,74H24V76H22zM24,74H26V76H24zM30,74H32V76H30zM36,74H38V76H36zM38,74H40V76H38zM42,74H44V76H42zM44,74H46V76H44zM48,74H50V76H48zM50,74H52V76H50zM52,74H54V76H52zM56,74H58V76H56zM68,74H70V76H68zM70,74H72V76H70zM72,74H74V76H72zM74,74H76V76H74zM76,74H78V76H76zM4,76H6V78H4zM6,76H8V78H6zM8,76H10V78H8zM10,76H12V78H10zM12,76H14V78H12zM14,76H16V78H14zM16,76H18V78H16zM20,76H22V78H20zM22,76H24V78H22zM24,76H26V78H24zM26,76H28V78H26zM28,76H30V78H28zM30,76H32V78H30zM34,76H36V78H34zM36,76H38V78H36zM40,76H42V78H40zM44,76H46V78H44zM50,76H52V78H50zM52,76H54V78H52zM60,76H62V78H60zM66,76H68V78H66zM70,76H72V78H70zM76,76H78V78H76z" id="qr-path" fill="#000000" fill-opacity="1" fill-rule="nonzero" stroke="none"/></svg>